#!OML:ASF F:\VICON\USERDATA\INSTALL\rory3\rory3.ASF
:FULLY-SPECIFIED
:DEGREES
1533
root 2.65429 15.6617 0.00391153 -185.402 -17.7987 -171.839
lowerback 41.7144 7.38041 3.28789
upperback 9.30632 7.77915 1.99046
thorax -9.23651 2.25057 -2.58614
lowerneck -9.66889 6.77388 -0.911022
upperneck 19.5765 11.5421 -14.8246
head 8.59335 3.62892 -3.65892
rclavicle 1.51076e-014 -3.8763e-014
rhumerus -7.47401 2.78732 -88.7939
rradius 32.134
rwrist 13.4265
rhand -5.18346 12.3541
rfingers 7.12502
rthumb 20.6171 -16.571
lclavicle 1.51076e-014 -3.8763e-014
lhumerus -41.0686 3.02377 84.9571
lradius 45.7429
lwrist 17.042
lhand 165.749 -493.065
lfingers 7.12502
lthumb -168.113 616.578
rfemur -11.6164 -15.8898 8.15828
rtibia 73.3784
rfoot -15.8535 17.8108
rtoes -21.2909
lfemur -49.3017 4.24813 1.73449
ltibia 64.1956
lfoot -0.210557 -11.5243
ltoes -30.9034
1534
root 2.68942 15.5454 0.152122 -185.419 -17.9103 -172.434
lowerback 41.8399 7.80951 3.21821
upperback 9.2752 8.251 1.55635
thorax -9.23074 2.48577 -3.21204
lowerneck -9.8173 6.62916 -0.994998
upperneck 19.8724 11.3668 -14.5758
head 8.68586 3.54122 -3.58094
rclavicle -1.59028e-015 -2.94201e-014
rhumerus -7.17691 3.55465 -89.3713
rradius 28.962
rwrist 13.6548
rhand -3.5661 11.4258
rfingers 7.12502
rthumb 22.1706 -17.3229
lclavicle -1.59028e-015 -2.94201e-014
lhumerus -39.8862 2.46568 85.1658
lradius 45.1241
lwrist 17.8778
lhand 166.523 -494.014
lfingers 7.12502
lthumb -167.366 615.584
rfemur -11.3564 -15.3716 7.79776
rtibia 74.3566
rfoot -16.3811 18.863
rtoes -20.8341
lfemur -50.293 3.38566 1.34896
ltibia 64.8666
lfoot -0.618881 -11.3373
ltoes -33.9056
1535
root 2.72805 15.458 0.290086 -185.239 -18.5345 -173.595
lowerback 41.8885 8.14457 2.76306
upperback 9.28584 8.42833 1.00357
thorax -9.20079 2.59749 -3.6476
lowerneck -10.3366 6.41543 -1.46265
upperneck 20.2825 11.1555 -14.0621
head 8.84908 3.40979 -3.34535
rclavicle 8.66701e-014 -1.53064e-014
rhumerus -7.14999 3.2594 -90.2555
rradius 26.2981
rwrist 15.1132
rhand -2.07387 10.4016
rfingers 7.12502
rthumb 23.6025 -18.1698
lclavicle 8.66701e-014 -1.53064e-014
lhumerus -38.6274 2.21722 85.1572
lradius 44.242
lwrist 18.1133
lhand 166.967 -493.843
lfingers 7.12502
lthumb -166.939 615.728
rfemur -10.8451 -15.2758 6.86088
rtibia 75.117
rfoot -16.9434 19.6793
rtoes -20.2388
lfemur -51.187 2.11054 0.231408
ltibia 65.2748
lfoot -0.0988326 -11.177
ltoes -35.1464
1536
root 2.79575 15.3662 0.406727 -185.773 -18.7613 -173.521
lowerback 41.9092 8.52516 2.90543
upperback 9.41334 8.90386 0.826926
thorax -8.98494 2.81946 -4.08794
lowerneck -10.1919 6.54731 -1.02803
upperneck 20.5843 11.3033 -14.0836
head 8.95966 3.50075 -3.41507
rclavicle 5.04913e-014 -5.36719e-015
rhumerus -7.07648 2.52124 -91.1894
rradius 24.1241
rwrist 16.7039
rhand -3.01042 10.4131
rfingers 7.12502
rthumb 22.704 -18.2712
lclavicle 5.04913e-014 -5.36719e-015
lhumerus -37.434 2.31041 84.9513
lradius 43.4242
lwrist 18.1745
lhand 167.222 -493.288
lfingers 7.12502
lthumb -166.693 616.267
rfemur -10.0955 -14.6769 7.70359
rtibia 75.6645
rfoot -17.7326 19.6603
rtoes -19.0757
lfemur -51.5459 1.36659 0.633061
ltibia 65.5531
lfoot 0.0915101 -11.3776
ltoes -36.3077
1537
root 2.8947 15.2849 0.510477 -187.023 -19.0752 -172.331
lowerback 41.5536 9.00795 3.37954
upperback 10.0208 9.61501 1.48848
thorax -8.18426 3.11929 -3.83542
lowerneck -10.0517 6.61937 -1.04358
upperneck 20.4767 11.4533 -14.4217
head 8.93236 3.5503 -3.51312
rclavicle 1.60817e-013 -6.30147e-014
rhumerus -6.56718 1.80865 -91.4137
rradius 22.3695
rwrist 18.8205
rhand -1.76802 9.86548
rfingers 7.12502
rthumb 23.8959 -18.6678
lclavicle 1.60817e-013 -6.30147e-014
lhumerus -35.9306 2.98238 85.2678
lradius 42.8819
lwrist 18.2117
lhand 167.543 -493.13
lfingers 7.12502
lthumb -166.384 616.404
rfemur -8.98047 -13.9045 10.1654
rtibia 75.9823
rfoot -19.3963 18.2754
rtoes -19.318
lfemur -51.5902 0.653565 2.23678
ltibia 65.6233
lfoot -0.0701744 -11.6342
ltoes -38.0433
1538
root 3.00846 15.2145 0.641307 -187.853 -19.9576 -171.857
lowerback 42.1052 9.01873 4.02475
upperback 10.0163 9.85349 1.28295
thorax -8.20255 3.22153 -4.49074
lowerneck -9.8432 6.59255 -0.8044
upperneck 20.5417 11.339 -14.1746
head 8.8988 3.55728 -3.48567
rclavicle -7.7526e-015 -1.59028e-015
rhumerus -6.48018 -0.753571 -92.4506
rradius 20.9927
rwrist 22.2143
rhand -0.879054 9.86226
rfingers 7.12502
rthumb 24.7481 -18.5568
lclavicle -7.7526e-015 -1.59028e-015
lhumerus -34.951 3.20116 84.7472
lradius 42.4817
lwrist 17.8834
lhand 167.927 -492.444
lfingers 7.12502
lthumb -166.014 617.065
rfemur -8.16758 -13.6797 11.8795
rtibia 76.2447
rfoot -21.4957 16.1831
rtoes -18.7206
lfemur -51.9671 -0.606303 2.94416
ltibia 65.4037
lfoot 0.818702 -11.578
ltoes -36.9926
1539
root 3.11166 15.1415 0.801426 -188.179 -20.8286 -171.713
lowerback 42.2946 9.0424 4.47559
upperback 10.0769 10.036 1.05464
thorax -8.06449 3.32073 -5.02692
lowerneck -10.0928 6.57497 -0.897746
upperneck 20.8589 11.371 -14.0428
head 9.04494 3.54829 -3.41959
rclavicle 5.88403e-014 -6.30147e-014
rhumerus -6.38265 -1.24041 -93.2319
rradius 20.2786
rwrist 22.4812
rhand -3.65005 9.40131
rfingers 7.12502
rthumb 22.09 -19.3569
lclavicle 5.88403e-014 -6.30147e-014
lhumerus -33.7672 3.81285 84.5903
lradius 42.1093
lwrist 17.3747
lhand 167.114 -490.784
lfingers 7.12502
lthumb -166.797 618.778
rfemur -8.18138 -13.5477 13.2698
rtibia 76.5989
rfoot -24.3919 12.9772
rtoes -20.4087
lfemur -52.664 -2.21356 3.34472
ltibia 64.9223
lfoot 0.74385 -10.8511
ltoes -38.872
1540
root 3.23121 15.0778 0.946314 -188.879 -22.0784 -170.965
lowerback 42.6098 8.82018 5.35357
upperback 10.117 10.1183 0.976216
thorax -7.94995 3.36726 -5.58191
lowerneck -10.3168 6.57604 -1.21268
upperneck 21.1207 11.4066 -13.6229
head 9.13502 3.56188 -3.21567
rclavicle -2.16675e-014 -4.77083e-015
rhumerus -6.36976 -1.55012 -94.045
rradius 20.0148
rwrist 22.5298
rhand -7.06319 8.81209
rfingers 7.12502
rthumb 18.81 -20.2984
lclavicle -2.16675e-014 -4.77083e-015
lhumerus -32.8387 3.87378 84.3975
lradius 42.308
lwrist 17.5432
lhand 166.943 -489.383
lfingers 7.12502
lthumb -166.961 620.189
rfemur -7.95721 -13.5088 15.4311
rtibia 76.7283
rfoot -27.0599 9.22322
rtoes -22.1534
lfemur -53.1652 -4.19613 4.42533
ltibia 64.1041
lfoot 1.8207 -9.95279
ltoes -36.7059
1541
root 3.36462 15.0528 1.08505 -189.181 -23.782 -171.073
lowerback 42.7152 8.60336 5.25112
upperback 10.2114 9.78023 0.736794
thorax -7.88556 3.22943 -5.65515
lowerneck -10.4409 6.77428 -1.36042
upperneck 21.1638 11.6847 -13.3275
head 9.16472 3.71188 -3.05119
rclavicle -5.76476e-015 -2.38542e-015
rhumerus -6.25022 -1.93275 -95.0302
rradius 19.9995
rwrist 22.8196
rhand -10.9525 8.89615
rfingers 7.12502
rthumb 15.0662 -20.5356
lclavicle -5.76476e-015 -2.38542e-015
lhumerus -32.209 4.17963 83.9137
lradius 42.832
lwrist 18.1492
lhand 167.107 -488.669
lfingers 7.12502
lthumb -166.804 620.893
rfemur -7.88369 -13.7335 16.6014
rtibia 76.8198
rfoot -29.0223 5.4043
rtoes -24.0619
lfemur -53.5882 -6.23235 4.38844
ltibia 62.847
lfoot 3.35679 -8.37487
ltoes -30.5744
1542
root 3.51307 15.0521 1.23285 -189.472 -25.5366 -170.784
lowerback 42.8338 8.25155 5.44966
upperback 10.2042 9.43582 0.487325
thorax -7.89438 3.09433 -5.89309
lowerneck -10.5211 7.03849 -1.10913
upperneck 21.1909 12.0283 -13.2629
head 9.22282 3.90465 -3.02377
rclavicle -1.44119e-014 -1.47101e-014
rhumerus -6.04253 -2.59711 -95.9573
rradius 20.4065
rwrist 23.3316
rhand -13.1372 8.73366
rfingers 7.12502
rthumb 12.9609 -20.8438
lclavicle -1.44119e-014 -1.47101e-014
lhumerus -31.4592 4.5028 83.1914
lradius 43.0258
lwrist 18.8805
lhand 166.775 -488.225
lfingers 7.12502
lthumb -167.124 621.357
rfemur -8.23995 -13.7729 18.3353
rtibia 76.8538
rfoot -30.1117 1.94597
rtoes -24.7031
lfemur -54.1957 -7.85952 4.6465
ltibia 61.2701
lfoot 4.11214 -8.51838
ltoes -33.8098
1543
root 3.67859 15.0496 1.38515 -190.053 -27.1312 -170.041
lowerback 42.976 8.09917 5.54856
upperback 10.3356 9.30016 0.704153
thorax -7.82185 3.02616 -5.65776
lowerneck -10.0879 7.3171 -0.423998
upperneck 20.7192 12.4097 -14.2075
head 9.11813 4.09635 -3.41955
rclavicle 9.3727e-014 -2.57426e-014
rhumerus -5.89732 -1.78792 -96.3279
rradius 21.448
rwrist 23.2017
rhand -10.0567 6.86352
rfingers 7.12502
rthumb 15.929 -22.5014
lclavicle 9.3727e-014 -2.57426e-014
lhumerus -30.4516 6.21555 82.8256
lradius 42.9425
lwrist 18.9199
lhand 166.601 -488.304
lfingers 7.12502
lthumb -167.292 621.289
rfemur -8.91874 -13.4243 20.692
rtibia 76.9967
rfoot -30.632 -1.54015
rtoes -25.6898
lfemur -54.6345 -9.31958 5.43004
ltibia 59.4119
lfoot 5.39965 -8.58093
ltoes -35.5923
1544
root 3.85194 15.0539 1.53858 -190.42 -29.155 -169.923
lowerback 43.3075 8.07805 5.48266
upperback 10.3044 9.29289 0.682825
thorax -7.96117 3.02986 -5.66922
lowerneck -10.5417 7.03532 -1.10203
upperneck 21.188 12.0386 -13.1992
head 9.22202 3.92968 -2.99872
rclavicle 9.31306e-014 -5.69518e-014
rhumerus -6.67996 -2.74203 -96.9864
rradius 23.0931
rwrist 24.4807
rhand -16.5914 8.03167
rfingers 7.12502
rthumb 9.62957 -21.7282
lclavicle 9.31306e-014 -5.69518e-014
lhumerus -29.4135 7.41986 82.475
lradius 42.6082
lwrist 18.3484
lhand 166.748 -488.677
lfingers 7.12502
lthumb -167.149 620.908
rfemur -9.73325 -13.2161 22.2107
rtibia 77.2841
rfoot -30.8627 -4.49062
rtoes -25.9407
lfemur -55.0074 -11.0395 5.44911
ltibia 57.3165
lfoot 7.00921 -8.48746
ltoes -37.2196
1545
root 4.02799 15.081 1.6878 -190.401 -31.5118 -170.063
lowerback 43.5681 8.15305 5.58507
upperback 10.1003 9.511 0.33345
thorax -8.17336 3.17233 -6.21209
lowerneck -9.76593 6.69667 0.408088
upperneck 21.1048 11.2869 -13.251
head 9.06726 3.75516 -3.37408
rclavicle 2.23633e-014 -6.14245e-014
rhumerus -6.50792 -0.873223 -96.522
rradius 24.7322
rwrist 21.0178
rhand -17.696 7.54524
rfingers 7.12502
rthumb 8.56375 -22.2611
lclavicle 2.23633e-014 -6.14245e-014
lhumerus -28.5034 6.6705 82.0008
lradius 42.6637
lwrist 18.266
lhand 167.402 -488.829
lfingers 7.12502
lthumb -166.52 620.714
rfemur -10.788 -13.0821 23.3973
rtibia 77.5276
rfoot -30.9822 -6.8349
rtoes -24.9421
lfemur -55.6059 -12.7076 5.11555
ltibia 55.0158
lfoot 9.41847 -7.97004
ltoes -35.2597
1546
root 4.19213 15.106 1.84691 -189.895 -34.0749 -170.491
lowerback 43.3622 7.92927 5.12517
upperback 10.1719 9.07397 0.1801
thorax -8.12867 3.01256 -5.96808
lowerneck -9.99671 6.70877 0.511958
upperneck 21.1975 11.3196 -13.1972
head 9.14783 3.77783 -3.36211
rclavicle -3.67752e-015 -1.6201e-014
rhumerus -6.28763 -0.213978 -96.1513
rradius 27.0278
rwrist 19.489
rhand -15.3646 7.27027
rfingers 7.12502
rthumb 10.8131 -22.4314
lclavicle -3.67752e-015 -1.6201e-014
lhumerus -27.6121 7.07782 81.7503
lradius 43.1396
lwrist 19.1267
lhand 167.809 -488.602
lfingers 7.12502
lthumb -166.127 620.915
rfemur -12.1595 -13.3653 23.9722
rtibia 77.7805
rfoot -31.1749 -8.57181
rtoes -23.9947
lfemur -56.6344 -14.4036 4.50562
ltibia 52.5478
lfoot 12.7032 -6.50992
ltoes -29.8929
1547
root 4.39201 15.1126 1.97384 -190.16 -36.9296 -170.158
lowerback 43.3863 7.47879 4.16511
upperback 10.3725 8.16705 0.672622
thorax -8.20206 2.57786 -4.60389
lowerneck -10.5313 7.11117 -0.765952
upperneck 21.1064 12.0471 -12.7569
head 9.17503 4.0457 -2.8938
rclavicle -1.71452e-014 1.50579e-014
rhumerus -6.12859 2.8117 -95.6865
rradius 28.9371
rwrist 18.1267
rhand -15.729 7.54952
rfingers 7.12502
rthumb 10.4616 -22.1702
lclavicle -1.71452e-014 1.50579e-014
lhumerus -26.72 10.3545 81.4117
lradius 43.3697
lwrist 19.0992
lhand 167.502 -488.05
lfingers 7.12502
lthumb -166.423 621.488
rfemur -12.9959 -14.0748 25.2753
rtibia 77.7728
rfoot -31.3675 -10.6625
rtoes -23.6818
lfemur -57.4847 -15.9864 4.41755
ltibia 50.0073
lfoot 16.086 -5.55609
ltoes -24.9855
